<?xml version="1.0" encoding="UTF-8" standalone="no"?>
<svg
   xmlns:dc="http://purl.org/dc/elements/1.1/"
   xmlns:cc="http://creativecommons.org/ns#"
   xmlns:rdf="http://www.w3.org/1999/02/22-rdf-syntax-ns#"
   xmlns:svg="http://www.w3.org/2000/svg"
   xmlns="http://www.w3.org/2000/svg"
   viewBox="0 0 24 24"
   height="24"
   width="24"
   xml:space="preserve"
   id="svg2"
   version="1.1"><metadata
     id="metadata8"><rdf:RDF><cc:Work
         rdf:about=""><dc:format>image/svg+xml</dc:format><dc:type
           rdf:resource="http://purl.org/dc/dcmitype/StillImage" /></cc:Work></rdf:RDF></metadata><defs
     id="defs6"><clipPath
       id="clipPath18"
       clipPathUnits="userSpaceOnUse"><path
         id="path16"
         d="M 0,18 H 18 V 0 H 0 Z" /></clipPath></defs><g
     transform="matrix(1.3333333,0,0,-1.3333333,0,24)"
     id="g10"><g
       id="g12"><g
         clip-path="url(#clipPath18)"
         id="g14"><g
           transform="translate(15.1543,6.4443)"
           id="g20"><path
             id="path22"
             style="fill:#000000;fill-opacity:1;fill-rule:nonzero;stroke:none"
             d="M 0,0 H -4.438 C -4.442,-0.532 -4.637,-0.948 -5.003,-1.29 -5.494,-1.749 -6.261,-1.864 -6.88,-1.57 -7.499,-1.276 -7.886,-0.656 -7.872,0 h -4.437 c 10e-4,-0.229 -0.001,-0.459 -0.004,-0.687 -0.002,-0.137 0.049,-0.195 0.181,-0.217 0.425,-0.074 0.846,-0.161 1.271,-0.233 0.133,-0.022 0.214,-0.076 0.265,-0.203 0.118,-0.293 0.242,-0.584 0.374,-0.871 0.057,-0.125 0.047,-0.221 -0.032,-0.332 -0.256,-0.359 -0.499,-0.728 -0.753,-1.089 -0.073,-0.103 -0.072,-0.177 0.022,-0.268 0.32,-0.312 0.637,-0.627 0.948,-0.949 0.095,-0.097 0.167,-0.105 0.279,-0.025 0.374,0.265 0.756,0.517 1.13,0.78 0.097,0.068 0.181,0.076 0.288,0.03 0.285,-0.123 0.572,-0.243 0.862,-0.353 0.123,-0.047 0.179,-0.123 0.201,-0.25 0.077,-0.445 0.166,-0.889 0.243,-1.335 0.022,-0.133 0.08,-0.184 0.216,-0.182 0.436,0.006 0.873,0.008 1.309,-10e-4 0.159,-0.002 0.218,0.057 0.244,0.209 0.074,0.447 0.166,0.89 0.244,1.336 0.02,0.119 0.081,0.179 0.187,0.22 0.29,0.113 0.578,0.23 0.863,0.354 0.114,0.049 0.201,0.037 0.302,-0.034 0.37,-0.26 0.748,-0.509 1.116,-0.772 0.12,-0.086 0.195,-0.068 0.292,0.032 0.302,0.315 0.609,0.625 0.924,0.926 0.113,0.108 0.108,0.188 0.024,0.306 -0.25,0.35 -0.489,0.71 -0.737,1.061 -0.075,0.109 -0.093,0.207 -0.034,0.333 0.135,0.292 0.259,0.589 0.38,0.887 0.046,0.115 0.119,0.166 0.24,0.187 0.43,0.075 0.858,0.161 1.287,0.236 0.132,0.022 0.184,0.078 0.182,0.215 C 0.001,-0.46 -0.001,-0.23 0,0" /></g><g
           transform="translate(11.8457,11.686)"
           id="g24"><path
             id="path26"
             style="fill:#000000;fill-opacity:1;fill-rule:nonzero;stroke:none"
             d="M 0,0 C 0.262,0 0.364,0 0.628,0 V 1.408 H 0 Z m 0,-0.242 c 0,-1.263 -0.034,-1.92 -0.034,-3.181 h 0.628 c 0.023,1.268 0.01,1.916 0.034,3.181 z m 0.953,0 c -0.024,-1.249 -0.01,-1.921 -0.035,-3.181 0.105,0.002 0.265,-0.002 0.326,0 0.89,0.014 0.829,-0.013 1.719,0.003 0.047,10e-4 0.095,0.002 0.141,-10e-4 0.085,-0.006 0.123,-0.043 0.132,-0.1 0.011,-0.057 -0.033,-0.103 -0.122,-0.117 -0.054,-0.002 -0.076,10e-4 -0.117,0 -1.087,-0.005 -1.216,0 -2.31,0 -0.296,-0.006 -0.523,0.006 -0.82,-10e-4 -0.233,-0.005 -0.26,-0.014 -0.257,0.148 0.028,1.593 0.014,2.581 0.04,4.174 0.005,0.255 0.005,0.511 0.012,0.767 0.003,0.143 0.069,0.184 0.282,0.188 C 0.942,1.656 2.004,1.631 2.99,1.634 3.044,1.635 3.099,1.637 3.152,1.635 3.246,1.632 3.302,1.598 3.311,1.534 3.319,1.47 3.263,1.426 3.154,1.416 3.088,1.41 3.02,1.408 2.952,1.408 H 1.439 C 1.359,1.406 1.058,1.412 0.953,1.408 0.941,0.928 0.964,0.487 0.953,0 1.075,-0.003 1.378,0.003 1.484,0 1.599,-0.002 1.714,-0.001 1.827,-0.008 1.912,-0.013 1.958,-0.052 1.966,-0.109 1.973,-0.166 1.909,-0.231 1.818,-0.242 H 1.661 c -0.147,0 -0.492,0 -0.64,0 z" /></g><g
           transform="translate(4.7837,11.8115)"
           id="g28"><path
             id="path30"
             style="fill:#000000;fill-opacity:1;fill-rule:nonzero;stroke:none"
             d="M 0,0 V 1.196 C -0.202,1.067 -0.338,0.82 -0.349,0.573 -0.358,0.352 -0.208,0.142 0,0 m 0.773,-3.367 c 0.045,0.014 0.005,0 0.021,0.008 0.039,0.017 0.03,0.027 0.067,0.048 0.356,0.199 0.598,0.433 0.786,0.836 0.082,0.367 0.101,0.636 0.054,0.998 C 1.637,-1.22 1.606,-1.163 1.42,-0.95 1.25,-0.812 1.193,-0.769 0.797,-0.611 0.777,-1.716 0.793,-2.26 0.773,-3.367 M 0.478,-3.372 c 0.003,0.033 0,0.031 0,0.06 0.021,1.1 0.002,1.665 0.013,2.763 0.003,0.098 -0.059,0.131 -0.15,0.167 -0.123,0.044 -0.021,0.001 -0.202,0.065 -0.211,0.074 -0.251,0.117 -0.431,0.253 -0.263,0.215 -0.321,0.468 -0.293,0.825 0.069,0.254 0.157,0.344 0.366,0.521 C -0.078,1.397 0.22,1.533 0.547,1.46 0.888,1.357 1.104,1.151 1.174,0.835 1.179,0.811 1.186,0.781 1.181,0.761 1.17,0.717 1.134,0.676 1.091,0.674 1.055,0.657 1,0.677 0.969,0.719 0.951,0.744 0.943,0.781 0.935,0.814 0.855,1.125 0.635,1.298 0.257,1.248 0.245,0.76 0.262,0.369 0.257,-0.12 0.306,-0.138 0.262,-0.123 0.311,-0.14 0.493,-0.214 0.578,-0.247 0.898,-0.395 1.314,-0.584 1.381,-0.559 1.793,-0.968 2.11,-1.384 2.117,-1.954 1.954,-2.456 1.726,-3.16 1.095,-3.585 0.282,-3.72 c -0.582,-0.039 -0.85,-0.073 -1.334,0.15 -0.325,0.15 -0.499,0.244 -0.663,0.565 -0.043,0.13 -0.045,0.269 -0.045,0.407 -0.005,0.059 0.035,0.098 0.104,0.105 0.066,0.008 0.103,-0.017 0.125,-0.095 10e-4,-0.028 0.002,-0.053 10e-4,-0.079 -0.004,-0.385 0.223,-0.503 0.587,-0.687 0.271,-0.125 0.33,-0.119 0.601,-0.161 0.225,-0.013 0.587,0.029 0.806,0.082 0.028,0.007 0.015,0.026 0.014,0.061" /></g><g
           transform="translate(4.7837,11.8115)"
           id="g32"><path
             id="path34"
             style="fill:none;stroke:#000000;stroke-width:0.05;stroke-linecap:butt;stroke-linejoin:miter;stroke-miterlimit:10;stroke-dasharray:none;stroke-opacity:1"
             d="M 0,0 V 1.196 C -0.202,1.067 -0.338,0.82 -0.349,0.573 -0.358,0.352 -0.208,0.142 0,0 Z m 0.773,-3.367 c 0.045,0.014 0.005,0 0.021,0.008 0.039,0.017 0.03,0.027 0.067,0.048 0.356,0.199 0.598,0.433 0.786,0.836 0.082,0.367 0.101,0.636 0.054,0.998 C 1.637,-1.22 1.606,-1.163 1.42,-0.95 1.25,-0.812 1.193,-0.769 0.797,-0.611 0.777,-1.716 0.793,-2.26 0.773,-3.367 Z M 0.478,-3.372 c 0.003,0.033 0,0.031 0,0.06 0.021,1.1 0.002,1.665 0.013,2.763 0.003,0.098 -0.059,0.131 -0.15,0.167 -0.123,0.044 -0.021,0.001 -0.202,0.065 -0.211,0.074 -0.251,0.117 -0.431,0.253 -0.263,0.215 -0.321,0.468 -0.293,0.825 0.069,0.254 0.157,0.344 0.366,0.521 C -0.078,1.397 0.22,1.533 0.547,1.46 0.888,1.357 1.104,1.151 1.174,0.835 1.179,0.811 1.186,0.781 1.181,0.761 1.17,0.717 1.134,0.676 1.091,0.674 1.055,0.657 1,0.677 0.969,0.719 0.951,0.744 0.943,0.781 0.935,0.814 0.855,1.125 0.635,1.298 0.257,1.248 0.245,0.76 0.262,0.369 0.257,-0.12 0.306,-0.138 0.262,-0.123 0.311,-0.14 0.493,-0.214 0.578,-0.247 0.898,-0.395 1.314,-0.584 1.381,-0.559 1.793,-0.968 2.11,-1.384 2.117,-1.954 1.954,-2.456 1.726,-3.16 1.095,-3.585 0.282,-3.72 c -0.582,-0.039 -0.85,-0.073 -1.334,0.15 -0.325,0.15 -0.499,0.244 -0.663,0.565 -0.043,0.13 -0.045,0.269 -0.045,0.407 -0.005,0.059 0.035,0.098 0.104,0.105 0.066,0.008 0.103,-0.017 0.125,-0.095 10e-4,-0.028 0.002,-0.053 10e-4,-0.079 -0.004,-0.385 0.223,-0.503 0.587,-0.687 0.271,-0.125 0.33,-0.119 0.601,-0.161 0.225,-0.013 0.587,0.029 0.806,0.082 0.028,0.007 0.015,0.026 0.014,0.061 z" /></g><g
           transform="translate(8.6152,11.9561)"
           id="g36"><path
             id="path38"
             style="fill:#000000;fill-opacity:1;fill-rule:nonzero;stroke:none"
             d="M 0,0 V -0.794 C 0.162,-0.71 0.323,-0.626 0.405,-0.466 0.568,-0.15 0.364,-0.006 0,0 m -0.346,-0.152 c 0.001,0.048 0,0.087 0,0.152 -0.104,-0.025 -0.166,-0.04 -0.266,-0.064 v -1.03 c 0.291,0.089 0.266,0.077 0.266,0.343 z m 0,-1.284 c -0.29,-0.069 -0.27,-0.075 -0.271,-0.331 -0.003,-0.546 -0.005,-1.091 -0.008,-1.637 v -0.219 h 0.3 c 0,0.733 -0.021,1.458 -0.021,2.187 M 0,-1.347 c 0,-0.751 0.021,-1.514 0.021,-2.272 0.45,-0.017 0.953,0.223 1.2,0.582 0.277,0.403 0.287,0.828 0.064,1.255 C 1.047,-1.327 0.474,-1.211 0,-1.347 m 0.339,0.395 c 0.105,-0.015 0.194,-0.027 0.283,-0.039 0.75,-0.1 1.112,-0.755 1.133,-1.275 0.028,-0.686 -0.293,-1.169 -0.891,-1.478 -0.282,-0.146 -0.59,-0.209 -0.905,-0.219 -0.227,-0.007 -0.455,0.004 -0.682,0.017 -0.145,0.008 -0.21,0.08 -0.219,0.222 -0.006,0.084 -0.003,0.169 -0.003,0.254 0.01,1.215 -0.002,2.095 0.006,3.095 0.001,0.104 0.002,0.208 0.001,0.312 -0.003,0.199 0.019,0.241 0.202,0.302 0.28,0.094 0.569,0.136 0.865,0.094 C 0.477,0.282 0.724,0.062 0.784,-0.249 0.791,-0.491 0.729,-0.535 0.632,-0.68 0.552,-0.796 0.449,-0.824 0.339,-0.952" /></g></g></g></g></svg>